<?xml version="1.0" standalone="no"?>
<!DOCTYPE svg PUBLIC "-//W3C//DTD SVG 20010904//EN"
 "http://www.w3.org/TR/2001/REC-SVG-20010904/DTD/svg10.dtd">
<svg version="1.0" xmlns="http://www.w3.org/2000/svg"
 width="512.000000pt" height="512.000000pt" viewBox="0 0 512.000000 512.000000"
 preserveAspectRatio="xMidYMid meet">

<g transform="translate(0.000000,512.000000) scale(0.100000,-0.100000)"
fill="#ec88b8" stroke="none">
<path d="M2669 5104 c-63 -19 -140 -90 -170 -156 l-24 -53 -3 -717 -3 -718
-25 -6 c-14 -4 -29 -3 -34 2 -5 5 -10 286 -12 624 l-3 615 -24 53 c-76 168
-295 224 -437 111 -76 -60 -92 -112 -49 -154 35 -36 66 -31 120 15 25 22 57
43 71 46 55 14 127 -18 157 -69 9 -17 13 -176 17 -653 l5 -631 29 -37 c82
-107 256 -94 316 24 20 38 20 57 20 747 0 789 -3 752 69 800 66 45 156 18 193
-57 17 -32 18 -89 18 -740 0 -671 1 -707 19 -747 24 -51 80 -91 142 -99 60 -8
126 20 165 72 l29 37 5 726 c5 670 6 728 23 758 51 94 180 95 237 1 19 -32 20
-52 20 -742 0 -703 0 -710 21 -754 25 -51 77 -88 137 -98 84 -13 178 48 201
133 7 23 11 179 11 404 0 364 0 366 23 400 12 18 34 39 47 46 37 19 101 16
137 -7 67 -40 63 20 63 -1028 0 -945 0 -949 21 -976 26 -33 79 -36 109 -6 20
20 20 33 20 983 0 1069 3 1014 -66 1096 -56 65 -113 93 -200 99 -92 6 -149
-14 -212 -72 -89 -82 -86 -68 -92 -513 -5 -411 -8 -432 -48 -407 -16 10 -17
64 -22 730 -5 706 -5 720 -26 765 -103 221 -413 222 -521 1 l-28 -57 -3 -715
c-2 -393 -7 -719 -11 -723 -5 -5 -18 -6 -30 -2 -20 6 -20 8 -23 728 l-3 722
-24 48 c-65 130 -213 194 -352 151z"/>
<path d="M1845 4485 l-25 -24 0 -995 c0 -696 -3 -997 -11 -1001 -6 -4 -129
110 -277 258 -243 240 -272 266 -320 282 -169 55 -342 -24 -403 -184 -27 -72
-23 -175 10 -241 16 -31 201 -224 616 -640 515 -517 596 -603 621 -655 l29
-60 5 -560 5 -560 23 -36 c44 -72 12 -69 769 -69 l680 0 21 23 c31 33 29 80
-4 106 -26 21 -34 21 -685 21 l-659 0 0 523 c0 575 -1 583 -62 701 -27 51
-128 157 -624 656 -326 327 -598 608 -603 623 -47 124 65 250 192 216 36 -9
80 -49 307 -274 191 -190 273 -265 295 -270 17 -4 36 -9 44 -11 24 -7 89 16
122 43 62 52 59 -2 59 1098 l0 1006 -25 24 c-13 14 -36 25 -50 25 -14 0 -37
-11 -50 -25z"/>
<path d="M2904 2731 c-18 -11 -36 -25 -40 -33 -5 -7 -11 -65 -14 -128 l-5
-115 -118 -5 -119 -5 -29 -33 -29 -32 0 -146 c0 -164 8 -191 64 -218 24 -11
62 -16 135 -16 l101 0 0 -105 c0 -176 16 -190 220 -190 203 0 221 15 228 187
l5 108 94 0 c108 0 155 16 178 61 11 21 15 66 15 173 l0 146 -29 32 -29 33
-115 3 -115 4 -4 108 c-3 91 -7 114 -24 137 -35 47 -58 53 -204 53 -116 0
-140 -3 -166 -19z m246 -250 c0 -66 3 -127 6 -136 13 -33 59 -45 174 -45 l110
0 0 -75 0 -75 -119 0 c-104 0 -121 -2 -144 -20 -26 -20 -26 -25 -29 -148 l-3
-127 -75 0 -75 0 -3 127 c-3 123 -3 128 -29 148 -23 18 -40 20 -144 20 l-119
0 0 75 0 75 110 0 c115 0 161 12 174 45 3 9 6 70 6 136 l0 119 80 0 80 0 0
-119z"/>
<path d="M4235 2060 c-45 -18 -50 -34 -56 -219 -6 -207 -11 -223 -111 -346
-71 -87 -96 -130 -124 -215 -16 -50 -18 -107 -22 -593 l-3 -537 -35 0 c-47 0
-69 -13 -83 -49 -10 -24 -10 -34 3 -59 19 -36 33 -42 99 -42 64 0 114 24 144
69 l23 34 0 522 c0 312 4 544 10 576 14 74 40 123 105 199 117 138 145 226
145 461 0 135 -2 160 -17 177 -22 25 -51 33 -78 22z"/>
</g>
</svg>
