<?xml version="1.0" standalone="no"?>
<!DOCTYPE svg PUBLIC "-//W3C//DTD SVG 20010904//EN"
 "http://www.w3.org/TR/2001/REC-SVG-20010904/DTD/svg10.dtd">
<svg version="1.0" xmlns="http://www.w3.org/2000/svg"
 width="512.000000pt" height="512.000000pt" viewBox="0 0 512.000000 512.000000"
 preserveAspectRatio="xMidYMid meet">

<g id="clock" transform="translate(0.000000,512.000000) scale(0.100000,-0.100000)"
fill="#53613D" stroke="none">
<path d="M2171 4884 c-20 -25 -21 -40 -21 -220 0 -236 -1 -234 110 -234 l71 0
-3 -87 -3 -86 -110 -19 c-222 -36 -472 -126 -668 -240 -839 -489 -1216 -1481
-911 -2398 405 -1218 1820 -1757 2935 -1119 686 393 1085 1165 1009 1950 -38
389 -195 778 -435 1076 -64 80 -226 243 -305 308 -251 205 -592 362 -900 416
-69 12 -131 23 -137 25 -9 2 -13 29 -13 89 l0 85 70 0 c111 0 110 -2 110 234
0 180 -1 195 -21 220 l-20 26 -369 0 -369 0 -20 -26z m659 -214 l0 -100 -270
0 -270 0 0 100 0 100 270 0 270 0 0 -100z m-180 -320 l0 -80 -90 0 -90 0 0 80
0 80 90 0 90 0 0 -80z m108 -231 c734 -79 1361 -582 1592 -1276 162 -489 126
-992 -107 -1453 -185 -368 -465 -648 -833 -833 -221 -111 -419 -170 -662 -196
-588 -64 -1211 180 -1603 627 -506 577 -617 1394 -283 2081 345 708 1116 1135
1896 1050z"/>
<path d="M2322 3874 c-810 -118 -1411 -813 -1412 -1633 -1 -911 738 -1651
1650 -1651 822 0 1519 605 1635 1420 90 632 -200 1265 -737 1614 -332 216
-747 307 -1136 250z m539 -153 c305 -66 546 -196 765 -415 281 -282 426 -613
441 -1011 21 -565 -268 -1085 -762 -1369 -371 -213 -833 -254 -1246 -110 -223
77 -390 183 -565 358 -220 221 -348 458 -416 770 -32 146 -32 446 0 592 68
313 196 550 416 769 240 240 506 375 842 430 127 21 397 13 525 -14z"/>
<path d="M2512 3607 c-18 -20 -22 -35 -22 -96 0 -63 3 -75 25 -96 13 -14 34
-25 45 -25 12 0 32 11 45 25 22 21 25 33 25 98 0 64 -3 76 -23 95 -30 28 -68
28 -95 -1z"/>
<path d="M2948 2545 l-387 -224 -303 175 c-328 189 -342 194 -381 142 -33 -44
-16 -74 73 -126 387 -229 597 -343 620 -338 21 4 574 318 785 445 73 44 89 77
58 119 -39 53 -48 49 -465 -193z"/>
<path d="M1192 2287 c-28 -30 -28 -68 1 -95 20 -18 35 -22 96 -22 63 0 75 3
96 25 14 13 25 34 25 45 0 12 -11 32 -25 45 -21 22 -33 25 -98 25 -64 0 -76
-3 -95 -23z"/>
<path d="M3735 2285 c-14 -13 -25 -33 -25 -45 0 -11 11 -32 25 -45 21 -22 33
-25 98 -25 64 0 76 3 95 23 28 30 28 68 -1 95 -20 18 -35 22 -96 22 -63 0 -75
-3 -96 -25z"/>
<path d="M2515 1065 c-22 -21 -25 -33 -25 -98 0 -64 3 -76 23 -95 30 -28 68
-28 95 1 18 20 22 35 22 96 0 63 -3 75 -25 96 -13 14 -33 25 -45 25 -11 0 -32
-11 -45 -25z"/>
</g>
</svg>
