<?xml version="1.0" standalone="no"?>
<!DOCTYPE svg PUBLIC "-//W3C//DTD SVG 20010904//EN"
 "http://www.w3.org/TR/2001/REC-SVG-20010904/DTD/svg10.dtd">
<svg version="1.0" xmlns="http://www.w3.org/2000/svg"
 width="512.000000pt" height="512.000000pt" viewBox="0 0 512.000000 512.000000"
 preserveAspectRatio="xMidYMid meet">

<g transform="translate(0.000000,512.000000) scale(0.100000,-0.100000)"
fill="#ec88b8" stroke="none">
<path d="M1333 4531 c-130 -45 -223 -162 -245 -310 l-10 -71 -173 0 -174 0
-20 -26 c-27 -35 -26 -57 3 -91 l24 -28 171 -3 171 -3 0 -630 0 -630 -223 3
c-195 3 -226 5 -250 21 -41 26 -67 76 -67 125 0 35 7 51 44 97 25 29 58 82 74
117 28 57 38 88 56 171 6 27 7 27 89 27 74 0 86 3 105 23 31 33 29 80 -4 106
-22 17 -41 21 -105 21 -78 0 -79 0 -85 28 -28 127 -55 186 -122 275 l-52 68 0
253 c0 232 -2 256 -18 277 -27 33 -78 30 -109 -5 -23 -27 -23 -30 -23 -279
l-1 -252 -49 -65 c-55 -72 -105 -180 -115 -252 l-7 -48 -85 0 c-76 0 -86 -2
-108 -25 -32 -31 -32 -69 0 -100 22 -23 32 -25 107 -25 l83 0 12 -60 c15 -77
58 -169 117 -246 l46 -62 0 -245 c0 -162 4 -255 11 -271 23 -51 103 -55 128
-7 6 11 11 63 11 116 0 88 2 97 18 90 44 -17 143 -25 324 -25 l197 0 6 -47
c21 -157 111 -274 255 -330 42 -17 118 -18 1019 -23 l974 -5 147 -686 c161
-749 162 -751 248 -830 24 -23 69 -53 100 -67 56 -26 62 -27 288 -30 216 -3
234 -2 288 19 90 33 154 92 199 179 65 130 67 112 -77 785 -70 325 -129 600
-133 613 -5 22 -4 22 98 22 292 1 410 71 494 294 79 209 135 581 135 891 0
321 -59 698 -141 903 -50 125 -102 187 -203 240 l-51 27 -847 3 c-839 2 -848
2 -868 -18 -32 -32 -23 -97 17 -116 10 -5 390 -11 844 -14 l825 -5 42 -27 c22
-15 53 -48 68 -74 74 -127 138 -422 159 -741 l7 -103 -1871 0 -1872 0 3 393
c3 430 2 421 67 490 60 65 17 62 789 67 l704 5 24 28 c29 34 30 56 3 91 l-20
26 -707 0 c-652 -1 -711 -2 -759 -19z m-832 -908 c86 -137 92 -320 14 -474
-37 -71 -48 -76 -77 -32 -52 79 -71 150 -71 258 -1 78 4 112 20 152 22 55 70
143 79 143 2 0 18 -21 35 -47z m4469 -350 c0 -66 -22 -278 -41 -393 -39 -246
-105 -433 -170 -483 -60 -45 -85 -50 -298 -56 l-204 -6 -20 -27 -20 -27 143
-666 c113 -529 141 -675 136 -708 -10 -59 -48 -119 -98 -153 l-43 -29 -227 0
-226 0 -44 30 c-23 17 -53 50 -66 73 -17 30 -63 227 -163 692 -76 357 -139
654 -139 660 0 5 108 10 276 12 l276 3 24 28 c29 34 30 56 3 90 l-20 27 -1322
2 c-1268 3 -1323 4 -1357 22 -49 26 -88 64 -113 111 -21 39 -22 52 -25 433
l-3 392 1870 0 1871 0 0 -27z"/>
</g>
</svg>
