<?xml version="1.0" standalone="no"?>
<!DOCTYPE svg PUBLIC "-//W3C//DTD SVG 20010904//EN"
 "http://www.w3.org/TR/2001/REC-SVG-20010904/DTD/svg10.dtd">
<svg version="1.0" xmlns="http://www.w3.org/2000/svg"
 width="512.000000pt" height="512.000000pt" viewBox="0 0 512.000000 512.000000"
 preserveAspectRatio="xMidYMid meet">

<g transform="translate(0.000000,512.000000) scale(0.100000,-0.100000)"
fill="#53613D" stroke="none">
<path d="M2335 4790 c-205 -24 -439 -83 -619 -156 -658 -269 -1155 -839 -1326
-1523 -52 -208 -64 -315 -64 -551 0 -236 12 -343 65 -554 196 -785 829 -1417
1615 -1615 203 -51 326 -66 559 -65 231 0 340 13 549 65 785 196 1417 829
1615 1615 51 201 65 326 65 554 0 228 -14 353 -65 554 -127 507 -445 969 -874
1272 -115 82 -191 124 -222 124 -41 0 -73 -33 -73 -76 0 -42 12 -54 145 -141
55 -36 138 -97 183 -135 l84 -71 -93 -93 -93 -93 -55 48 c-139 120 -406 272
-580 330 -141 48 -321 83 -471 94 l-35 2 -3 132 -3 131 63 -5 c175 -12 356
-49 525 -104 86 -28 94 -29 121 -15 16 8 32 23 36 31 12 32 6 75 -13 94 -35
35 -281 105 -479 137 -117 18 -446 26 -557 14z m143 -282 l-3 -133 -87 -7
c-342 -29 -708 -179 -979 -403 l-76 -63 -93 93 -92 93 78 67 c325 278 779 457
1232 484 23 1 23 1 20 -131z m397 -318 c664 -131 1186 -653 1315 -1315 138
-712 -218 -1450 -860 -1784 -359 -186 -756 -236 -1145 -144 -167 39 -179 40
-209 9 -56 -55 -20 -115 89 -146 88 -26 283 -60 340 -60 77 0 75 3 75 -141 l0
-129 -72 6 c-181 15 -375 56 -544 115 -211 73 -472 222 -638 364 l-78 67 92
93 93 93 71 -60 c78 -66 210 -156 269 -184 35 -17 39 -17 72 -1 68 32 59 104
-20 153 -212 134 -397 304 -517 474 -452 639 -397 1504 133 2083 257 282 611
466 999 523 136 19 394 12 535 -16z m-1720 -479 c-224 -271 -374 -637 -403
-979 l-7 -87 -133 -3 -132 -3 6 73 c35 437 209 867 479 1182 l67 78 93 -92 93
-93 -63 -76z m3076 87 c230 -310 370 -686 403 -1085 l6 -73 -133 0 -134 0 -6
88 c-22 333 -182 721 -410 992 l-55 65 92 93 91 93 44 -48 c24 -26 70 -83 102
-125z m-3479 -1410 c29 -342 179 -708 403 -979 l63 -76 -93 -93 -93 -92 -67
78 c-270 315 -444 745 -479 1182 l-6 73 132 -3 133 -3 7 -87z m3882 20 c-28
-341 -133 -664 -308 -946 -58 -93 -151 -218 -209 -280 l-31 -32 -92 91 -92 91
66 82 c228 282 378 649 399 979 l6 87 134 0 133 0 -6 -72z m-677 -1387 c-7 -8
-55 -49 -108 -91 -320 -256 -716 -410 -1136 -444 l-73 -6 0 133 0 134 88 6
c191 12 444 83 633 177 116 58 298 177 374 244 l50 45 92 -92 c77 -75 90 -93
80 -106z"/>
<path d="M2334 3458 c-42 -20 -44 -42 -44 -438 l0 -380 -190 0 c-119 0 -198
-4 -214 -11 -50 -23 -57 -103 -13 -134 17 -12 61 -15 219 -15 l198 0 0 -124 0
-124 -201 -4 -201 -3 -24 -28 c-29 -34 -31 -66 -3 -101 l20 -26 205 0 204 0 0
-175 c0 -190 6 -217 51 -236 34 -14 84 2 99 32 6 10 10 99 10 198 l0 181 199
0 200 0 20 26 c28 35 26 67 -3 101 l-24 28 -196 3 -196 4 0 124 0 124 189 0
c103 0 212 5 242 10 252 48 430 302 391 557 -32 205 -196 376 -396 412 -76 14
-513 13 -542 -1z m588 -180 c70 -33 133 -96 167 -168 21 -45 25 -70 25 -135 0
-137 -62 -238 -182 -297 l-66 -33 -208 -3 -208 -3 0 336 0 337 208 -4 c200 -3
209 -4 264 -30z"/>
</g>
</svg>
