<?xml version="1.0" standalone="no"?>
<!DOCTYPE svg PUBLIC "-//W3C//DTD SVG 20010904//EN"
 "http://www.w3.org/TR/2001/REC-SVG-20010904/DTD/svg10.dtd">
<svg version="1.0" xmlns="http://www.w3.org/2000/svg"
 width="512.000000pt" height="512.000000pt" viewBox="0 0 512.000000 512.000000"
 preserveAspectRatio="xMidYMid meet">

<g transform="translate(0.000000,512.000000) scale(0.100000,-0.100000)"
fill="#ec88b8" stroke="none">
<path d="M3772 4441 c-236 -220 -526 -525 -757 -796 -157 -183 -175 -207 -175
-236 0 -40 88 -186 121 -199 56 -24 71 -10 191 168 226 335 521 709 786 994
82 88 91 120 47 163 -48 49 -72 38 -213 -94z"/>
<path d="M1705 4215 c-17 -16 -25 -35 -25 -57 0 -30 83 -116 1063 -1095 952
-953 1065 -1063 1093 -1063 44 0 84 39 84 82 0 30 -83 116 -1063 1095 -979
980 -1065 1063 -1095 1063 -22 0 -41 -8 -57 -25z"/>
<path d="M2542 3084 c-30 -20 -45 -53 -140 -289 -306 -766 -403 -1430 -252
-1725 97 -191 349 -251 484 -116 52 51 75 113 83 216 7 96 -10 159 -72 260
-59 99 -75 153 -82 285 -14 267 57 700 185 1135 14 46 17 72 10 90 -11 31
-103 126 -140 146 -34 18 -48 18 -76 -2z m-26 -480 c-78 -303 -125 -679 -113
-904 10 -168 33 -245 114 -366 26 -40 36 -66 40 -111 14 -151 -62 -219 -184
-164 -139 64 -171 386 -82 836 36 183 103 418 177 623 56 156 75 189 48 86z"/>
<path d="M1460 1890 c-250 -43 -355 -50 -738 -50 l-353 0 -24 -25 c-16 -15
-25 -36 -25 -55 0 -19 9 -40 25 -55 l24 -25 353 0 c393 0 488 6 761 51 204 34
241 33 277 -6 24 -25 24 -26 12 -133 -29 -259 2 -473 94 -661 37 -74 62 -110
123 -171 345 -348 901 -218 1027 240 13 48 18 101 18 200 0 119 -3 144 -27
215 -14 44 -47 114 -72 155 -53 89 -58 129 -19 165 34 31 43 31 255 -4 271
-46 361 -51 992 -51 l588 0 24 25 c30 29 32 74 6 106 l-19 24 -669 6 -668 5
-215 38 c-282 50 -331 45 -414 -40 -49 -51 -69 -109 -64 -186 3 -54 12 -77 61
-162 71 -124 92 -210 84 -335 -18 -262 -162 -420 -402 -438 -139 -10 -269 39
-371 141 -148 148 -203 395 -170 758 8 83 6 104 -8 142 -33 85 -146 157 -246
155 -30 -1 -129 -14 -220 -29z"/>
</g>
</svg>
