<?xml version="1.0" standalone="no"?>
<!DOCTYPE svg PUBLIC "-//W3C//DTD SVG 20010904//EN"
 "http://www.w3.org/TR/2001/REC-SVG-20010904/DTD/svg10.dtd">
<svg version="1.0" xmlns="http://www.w3.org/2000/svg"
 width="512.000000pt" height="512.000000pt" viewBox="0 0 512.000000 512.000000"
 preserveAspectRatio="xMidYMid meet">

<g transform="translate(0.000000,512.000000) scale(0.100000,-0.100000)"
fill="#ec88b8" stroke="none">
<path d="M4680 4585 c-176 -136 -227 -180 -234 -204 -16 -57 44 -108 98 -83
37 17 453 340 460 358 21 54 -12 104 -66 104 -27 -1 -75 -33 -258 -175z"/>
<path d="M359 4582 c-167 -44 -305 -186 -343 -352 -22 -94 -23 -602 -2 -701
44 -204 212 -380 416 -434 34 -9 103 -15 178 -15 67 0 122 -3 122 -7 0 -5 -43
-550 -95 -1213 -52 -662 -95 -1229 -95 -1260 1 -95 57 -181 145 -221 37 -17
78 -19 551 -19 l510 0 55 28 c65 33 113 93 127 159 19 91 37 419 24 447 -23
51 -105 46 -126 -7 -7 -18 -19 -111 -25 -207 -7 -96 -17 -190 -22 -207 -20
-65 -3 -63 -545 -63 l-492 0 -27 32 c-32 38 -32 28 1 443 l17 215 161 0 c148
0 165 2 212 24 58 27 116 90 132 144 15 50 64 697 60 783 -4 85 -42 150 -112
194 -48 29 -52 30 -203 33 l-153 3 0 27 c0 15 11 167 25 337 14 171 25 316 25
323 0 9 117 12 550 12 517 0 550 -1 550 -17 0 -10 -31 -411 -69 -892 -45 -567
-67 -881 -61 -897 18 -47 74 -57 115 -21 24 21 26 29 40 207 8 101 15 197 15
212 l0 28 153 0 c193 0 240 12 306 78 28 29 51 63 59 88 9 30 12 153 12 435 0
442 0 437 -75 511 -53 53 -107 68 -242 68 l-113 0 1 48 c0 26 4 70 7 97 l7 50
530 5 530 5 62 24 c93 37 191 108 252 184 l54 67 190 0 c183 0 192 1 231 24
23 13 51 41 63 63 30 53 156 652 150 711 -5 50 -37 100 -85 133 -34 23 -44 24
-214 27 -171 3 -178 4 -189 25 -48 93 -160 190 -267 230 -57 22 -61 22 -997
25 -517 1 -950 0 -962 -3 -13 -3 -30 -19 -39 -36 -13 -26 -13 -36 -3 -60 6
-16 17 -33 23 -37 6 -4 436 -9 956 -12 942 -5 945 -5 992 -27 63 -29 134 -97
166 -158 19 -38 26 -69 29 -130 4 -75 -1 -99 -71 -358 -44 -163 -87 -300 -103
-330 -40 -72 -111 -140 -190 -179 l-68 -33 -1355 0 -1356 0 -76 37 c-115 57
-191 151 -223 276 -13 51 -16 112 -13 354 3 292 3 293 29 348 36 77 77 121
151 161 l63 34 396 5 c372 5 398 6 418 24 31 28 28 79 -5 105 -26 20 -37 21
-403 20 -322 0 -385 -3 -442 -17z m3675 -418 c9 -3 16 -14 16 -23 0 -31 -123
-606 -133 -618 -7 -9 -50 -13 -154 -13 -133 0 -144 1 -139 18 3 9 35 127 71
262 50 187 65 260 65 312 l0 68 129 0 c71 0 136 -3 145 -6z m-1663 -1463 l29
-29 0 -377 c0 -239 -4 -383 -10 -396 -22 -40 -61 -49 -210 -49 -127 0 -140 2
-140 18 -1 9 14 207 32 440 l32 422 119 0 c118 0 119 0 148 -29z m-1248 -499
c22 -23 27 -37 27 -78 0 -101 -50 -706 -60 -724 -24 -44 -47 -50 -197 -50
-129 0 -143 2 -143 18 -1 9 14 207 32 440 l32 422 141 0 141 0 27 -28z"/>
<path d="M563 4130 c-45 -10 -81 -36 -103 -73 -18 -29 -20 -51 -20 -218 0
-177 1 -188 23 -219 12 -18 35 -43 50 -54 28 -21 39 -21 544 -24 500 -2 517
-2 557 18 27 13 50 34 64 59 20 36 22 52 22 223 0 175 -1 187 -23 218 -12 19
-38 43 -57 54 -34 20 -50 21 -530 23 -272 1 -510 -2 -527 -7z m987 -290 l0
-150 -480 0 -480 0 0 150 0 150 480 0 480 0 0 -150z"/>
<path d="M4531 3884 c-28 -36 -26 -60 8 -95 l29 -29 242 0 c192 0 247 3 269
15 46 23 54 66 20 109 l-20 26 -264 0 -264 0 -20 -26z"/>
<path d="M4395 3405 c-27 -26 -31 -54 -15 -86 12 -22 471 -366 507 -380 54
-20 109 40 87 96 -12 34 -498 395 -531 395 -13 0 -35 -11 -48 -25z"/>
</g>
</svg>
