<?xml version="1.0" standalone="no"?>
<!DOCTYPE svg PUBLIC "-//W3C//DTD SVG 20010904//EN"
 "http://www.w3.org/TR/2001/REC-SVG-20010904/DTD/svg10.dtd">
<svg version="1.0" xmlns="http://www.w3.org/2000/svg"
 width="512.000000pt" height="512.000000pt" viewBox="0 0 512.000000 512.000000"
 preserveAspectRatio="xMidYMid meet">

<g transform="translate(0.000000,512.000000) scale(0.100000,-0.100000)"
fill="#ec88b8" stroke="none">
<path d="M2513 4825 c-12 -8 -29 -39 -38 -68 -48 -146 -136 -260 -240 -312
-103 -52 -103 -118 0 -170 105 -52 192 -165 240 -312 18 -57 45 -83 85 -83 40
0 67 26 85 83 48 146 136 260 240 312 103 51 103 119 1 168 -103 49 -192 166
-241 314 -18 57 -45 83 -85 83 -14 0 -35 -7 -47 -15z m72 -314 c8 -16 40 -57
71 -90 l56 -61 -56 -61 c-31 -33 -63 -74 -71 -90 -9 -16 -20 -29 -25 -29 -5 0
-16 13 -25 29 -8 16 -40 57 -71 90 l-56 61 56 61 c31 33 63 74 71 90 9 16 20
29 25 29 5 0 16 -13 25 -29z"/>
<path d="M3872 4023 c-12 -10 -31 -47 -42 -83 -47 -141 -140 -292 -227 -370
-27 -23 -80 -58 -120 -77 -83 -40 -104 -72 -83 -122 9 -22 30 -38 83 -64 40
-19 93 -54 120 -77 87 -77 178 -226 227 -373 25 -73 48 -97 93 -97 31 0 77 39
77 65 0 25 64 174 106 245 56 97 156 192 247 235 57 28 78 44 87 66 21 50 0
82 -83 122 -87 42 -152 98 -212 181 -51 72 -119 209 -141 283 -9 30 -25 59
-37 68 -29 20 -70 19 -95 -2z m67 -321 c30 -72 123 -189 215 -269 l37 -33 -37
-32 c-92 -81 -185 -198 -215 -270 -6 -15 -15 -28 -19 -28 -4 0 -13 13 -19 28
-30 72 -123 189 -214 269 l-36 32 76 73 c70 67 164 193 178 238 9 28 21 25 34
-8z"/>
<path d="M913 3585 c-12 -8 -29 -39 -38 -68 -48 -146 -136 -260 -240 -312
-103 -52 -103 -118 0 -170 104 -52 192 -166 240 -312 18 -57 45 -83 85 -83 40
0 67 26 85 83 48 146 136 260 240 312 103 51 103 119 1 168 -103 49 -192 166
-241 314 -18 57 -45 83 -85 83 -14 0 -35 -7 -47 -15z m72 -314 c8 -16 40 -57
71 -90 l56 -61 -56 -61 c-31 -33 -63 -74 -71 -90 -9 -16 -20 -29 -25 -29 -5 0
-16 13 -25 29 -8 16 -40 57 -71 90 l-56 61 56 61 c31 33 63 74 71 90 9 16 20
29 25 29 5 0 16 -13 25 -29z"/>
<path d="M105 2495 c-16 -15 -25 -36 -25 -55 0 -19 9 -40 25 -55 l24 -25 2431
0 2431 0 24 25 c33 32 33 78 0 110 l-24 25 -2431 0 -2431 0 -24 -25z"/>
<path d="M105 2095 c-30 -29 -33 -73 -7 -105 14 -17 35 -25 81 -31 87 -12 112
-28 231 -143 163 -159 289 -204 447 -162 97 26 145 57 253 162 131 127 152
139 250 139 98 0 120 -12 250 -140 162 -158 289 -203 447 -161 97 26 145 57
253 162 131 127 152 139 250 139 99 0 132 -19 245 -138 105 -109 173 -150 285
-169 55 -9 85 -9 142 0 107 19 177 61 283 170 114 119 146 137 245 137 98 0
119 -12 250 -139 116 -113 180 -151 287 -169 45 -8 81 -8 126 0 107 18 171 55
287 168 119 116 145 132 231 144 46 6 67 14 81 31 43 54 3 130 -69 130 -119
-1 -212 -48 -343 -176 -131 -127 -152 -139 -250 -139 -99 0 -131 18 -245 137
-98 101 -171 148 -263 167 -171 36 -297 -12 -451 -169 -119 -121 -143 -135
-241 -135 -99 0 -131 18 -245 137 -97 100 -156 138 -250 163 -171 44 -306 -4
-464 -165 -119 -121 -143 -135 -241 -135 -97 0 -119 12 -250 139 -107 104
-158 137 -253 162 -158 42 -284 -3 -447 -162 -131 -127 -152 -139 -250 -139
-97 0 -118 12 -250 140 -108 104 -170 143 -261 164 -75 18 -117 14 -144 -14z"/>
<path d="M105 1295 c-33 -32 -33 -78 0 -110 23 -24 31 -25 135 -25 104 0 112
1 135 25 33 32 33 78 0 110 -23 24 -31 25 -135 25 -104 0 -112 -1 -135 -25z"/>
<path d="M825 1295 c-16 -15 -25 -36 -25 -55 0 -19 9 -40 25 -55 23 -24 31
-25 135 -25 104 0 112 1 135 25 16 15 25 36 25 55 0 19 -9 40 -25 55 -23 24
-31 25 -135 25 -104 0 -112 -1 -135 -25z"/>
<path d="M1625 1295 c-16 -15 -25 -36 -25 -55 0 -19 9 -40 25 -55 23 -24 31
-25 135 -25 104 0 112 1 135 25 16 15 25 36 25 55 0 19 -9 40 -25 55 -23 24
-31 25 -135 25 -104 0 -112 -1 -135 -25z"/>
<path d="M2425 1295 c-16 -15 -25 -36 -25 -55 0 -19 9 -40 25 -55 23 -24 31
-25 135 -25 104 0 112 1 135 25 16 15 25 36 25 55 0 19 -9 40 -25 55 -23 24
-31 25 -135 25 -104 0 -112 -1 -135 -25z"/>
<path d="M3225 1295 c-16 -15 -25 -36 -25 -55 0 -19 9 -40 25 -55 23 -24 31
-25 135 -25 104 0 112 1 135 25 16 15 25 36 25 55 0 19 -9 40 -25 55 -23 24
-31 25 -135 25 -104 0 -112 -1 -135 -25z"/>
<path d="M4025 1295 c-16 -15 -25 -36 -25 -55 0 -19 9 -40 25 -55 23 -24 31
-25 135 -25 104 0 112 1 135 25 16 15 25 36 25 55 0 19 -9 40 -25 55 -23 24
-31 25 -135 25 -104 0 -112 -1 -135 -25z"/>
<path d="M4745 1295 c-16 -15 -25 -36 -25 -55 0 -19 9 -40 25 -55 23 -24 31
-25 135 -25 104 0 112 1 135 25 16 15 25 36 25 55 0 19 -9 40 -25 55 -23 24
-31 25 -135 25 -104 0 -112 -1 -135 -25z"/>
<path d="M425 815 c-16 -15 -25 -36 -25 -55 0 -19 9 -40 25 -55 23 -24 31 -25
135 -25 104 0 112 1 135 25 16 15 25 36 25 55 0 19 -9 40 -25 55 -23 24 -31
25 -135 25 -104 0 -112 -1 -135 -25z"/>
<path d="M1225 815 c-16 -15 -25 -36 -25 -55 0 -19 9 -40 25 -55 23 -24 31
-25 135 -25 104 0 112 1 135 25 16 15 25 36 25 55 0 19 -9 40 -25 55 -23 24
-31 25 -135 25 -104 0 -112 -1 -135 -25z"/>
<path d="M2025 815 c-16 -15 -25 -36 -25 -55 0 -19 9 -40 25 -55 23 -24 31
-25 135 -25 104 0 112 1 135 25 16 15 25 36 25 55 0 19 -9 40 -25 55 -23 24
-31 25 -135 25 -104 0 -112 -1 -135 -25z"/>
<path d="M2825 815 c-16 -15 -25 -36 -25 -55 0 -19 9 -40 25 -55 23 -24 31
-25 135 -25 104 0 112 1 135 25 16 15 25 36 25 55 0 19 -9 40 -25 55 -23 24
-31 25 -135 25 -104 0 -112 -1 -135 -25z"/>
<path d="M3625 815 c-16 -15 -25 -36 -25 -55 0 -19 9 -40 25 -55 23 -24 31
-25 135 -25 104 0 112 1 135 25 16 15 25 36 25 55 0 19 -9 40 -25 55 -23 24
-31 25 -135 25 -104 0 -112 -1 -135 -25z"/>
<path d="M4425 815 c-16 -15 -25 -36 -25 -55 0 -19 9 -40 25 -55 23 -24 31
-25 135 -25 104 0 112 1 135 25 16 15 25 36 25 55 0 19 -9 40 -25 55 -23 24
-31 25 -135 25 -104 0 -112 -1 -135 -25z"/>
<path d="M825 415 c-16 -15 -25 -36 -25 -55 0 -19 9 -40 25 -55 23 -24 31 -25
135 -25 104 0 112 1 135 25 16 15 25 36 25 55 0 19 -9 40 -25 55 -23 24 -31
25 -135 25 -104 0 -112 -1 -135 -25z"/>
<path d="M1625 415 c-16 -15 -25 -36 -25 -55 0 -19 9 -40 25 -55 23 -24 31
-25 135 -25 104 0 112 1 135 25 16 15 25 36 25 55 0 19 -9 40 -25 55 -23 24
-31 25 -135 25 -104 0 -112 -1 -135 -25z"/>
<path d="M2425 415 c-16 -15 -25 -36 -25 -55 0 -19 9 -40 25 -55 23 -24 31
-25 135 -25 104 0 112 1 135 25 16 15 25 36 25 55 0 19 -9 40 -25 55 -23 24
-31 25 -135 25 -104 0 -112 -1 -135 -25z"/>
<path d="M3225 415 c-16 -15 -25 -36 -25 -55 0 -19 9 -40 25 -55 23 -24 31
-25 135 -25 104 0 112 1 135 25 16 15 25 36 25 55 0 19 -9 40 -25 55 -23 24
-31 25 -135 25 -104 0 -112 -1 -135 -25z"/>
<path d="M4025 415 c-16 -15 -25 -36 -25 -55 0 -19 9 -40 25 -55 23 -24 31
-25 135 -25 104 0 112 1 135 25 16 15 25 36 25 55 0 19 -9 40 -25 55 -23 24
-31 25 -135 25 -104 0 -112 -1 -135 -25z"/>
</g>
</svg>
