<?xml version="1.0" standalone="no"?>
<!DOCTYPE svg PUBLIC "-//W3C//DTD SVG 20010904//EN"
 "http://www.w3.org/TR/2001/REC-SVG-20010904/DTD/svg10.dtd">
<svg version="1.0" xmlns="http://www.w3.org/2000/svg"
 width="512.000000pt" height="512.000000pt" viewBox="0 0 512.000000 512.000000"
 preserveAspectRatio="xMidYMid meet">

<g transform="translate(0.000000,512.000000) scale(0.100000,-0.100000)"
fill="#53613D" stroke="none">
<path d="M2505 5095 c-25 -24 -25 -25 -25 -222 l0 -197 -183 182 c-162 161
-187 182 -216 182 -43 0 -81 -38 -81 -82 0 -29 25 -57 240 -273 l241 -241 -3
-106 -3 -105 -210 123 c-130 77 -221 123 -238 124 -54 0 -68 -29 -131 -275
-33 -126 -61 -232 -63 -234 -2 -3 -37 28 -78 69 l-75 74 0 339 0 338 -25 24
c-32 33 -83 34 -113 2 -21 -23 -22 -30 -22 -283 l0 -259 -137 137 c-160 160
-182 171 -234 119 -52 -52 -41 -74 119 -233 l137 -138 -261 0 c-259 0 -261 0
-282 -23 -27 -29 -28 -77 -3 -108 l19 -24 344 -3 344 -3 74 -74 c41 -41 72
-76 69 -78 -2 -2 -107 -31 -234 -63 -247 -63 -275 -77 -275 -131 1 -17 48
-108 125 -238 l123 -210 -106 -3 -106 -3 -241 241 c-223 222 -244 240 -276
240 -46 0 -79 -34 -79 -80 0 -30 18 -52 182 -217 l182 -183 -197 0 c-197 0
-198 0 -222 -25 -33 -32 -33 -78 0 -110 24 -25 25 -25 222 -25 l197 0 -182
-183 c-167 -168 -182 -186 -182 -218 0 -46 34 -79 80 -79 31 0 55 21 275 240
l241 241 106 -3 105 -3 -123 -210 c-71 -121 -123 -221 -124 -236 0 -56 20 -66
270 -131 129 -34 237 -63 239 -65 3 -2 -28 -37 -69 -78 l-74 -75 -339 0 -338
0 -24 -25 c-33 -32 -34 -83 -2 -113 23 -21 30 -22 283 -22 l259 0 -137 -137
c-81 -81 -139 -149 -143 -165 -13 -51 42 -106 92 -93 17 4 83 61 166 143 l137
136 0 -260 c0 -259 0 -261 23 -282 29 -27 77 -28 108 -3 l24 19 3 344 3 343
134 136 c122 122 135 139 135 171 0 67 13 62 -512 199 l-36 9 134 230 c74 126
134 239 134 250 0 12 -60 125 -134 251 l-135 229 37 9 c409 107 469 124 488
142 15 14 38 84 84 262 35 133 67 246 71 251 4 5 109 -50 233 -123 123 -72
235 -131 247 -131 12 0 123 59 246 131 124 72 228 127 232 123 5 -5 29 -92 55
-194 80 -312 83 -320 119 -334 18 -7 133 -39 257 -71 124 -32 229 -62 234 -66
5 -4 -50 -109 -123 -233 -72 -123 -131 -234 -131 -247 0 -12 59 -122 131 -245
120 -206 137 -244 107 -244 -6 0 -117 -28 -246 -62 -255 -67 -272 -76 -272
-137 0 -31 14 -48 135 -170 l134 -136 3 -343 3 -344 24 -19 c32 -26 82 -25
109 4 21 23 22 30 22 283 l0 259 138 -137 c84 -84 148 -139 165 -144 51 -12
105 43 92 94 -4 16 -64 85 -143 165 l-136 137 260 0 c259 0 261 0 282 23 27
29 28 77 3 108 l-19 24 -344 3 -344 3 -74 74 c-41 41 -72 76 -69 78 2 2 108
30 234 63 247 63 275 77 275 131 -1 17 -48 108 -125 238 l-123 210 106 3 106
3 241 -241 c216 -215 244 -240 273 -240 44 0 82 38 82 81 0 29 -21 54 -182
216 l-182 183 197 0 c197 0 198 0 222 25 33 32 33 78 0 110 -24 25 -25 25
-222 25 l-197 0 182 183 c161 162 182 187 182 216 0 43 -38 81 -82 81 -29 0
-57 -25 -273 -240 l-241 -241 -106 3 -106 3 124 210 c76 130 123 221 124 238
0 54 -28 68 -275 131 -126 33 -232 61 -234 63 -3 2 28 37 69 78 l74 75 339 0
338 0 24 25 c33 32 34 83 2 113 -23 21 -30 22 -283 22 l-259 0 137 138 c160
159 171 181 119 233 -52 52 -74 41 -233 -119 l-138 -137 0 261 c0 259 0 261
-23 282 -29 27 -77 28 -108 3 l-24 -19 -3 -344 -3 -344 -74 -74 c-41 -41 -76
-72 -78 -69 -2 2 -30 108 -63 234 -62 244 -77 275 -129 275 -15 0 -115 -52
-238 -124 l-212 -124 -3 106 -3 106 241 241 c222 223 240 244 240 276 0 46
-34 79 -80 79 -30 0 -52 -18 -217 -182 l-183 -182 0 197 c0 197 0 198 -25 222
-15 16 -36 25 -55 25 -19 0 -40 -9 -55 -25z"/>
<path d="M2466 3350 c-63 -16 -153 -70 -197 -117 -22 -24 -55 -74 -72 -111
l-32 -67 -3 -954 -2 -954 -66 -70 c-237 -256 -230 -642 15 -888 207 -206 510
-246 770 -102 77 43 183 147 229 224 148 251 112 559 -90 773 l-58 60 -2 956
-3 956 -37 76 c-68 136 -188 217 -336 224 -42 2 -94 -1 -116 -6z m168 -162
c55 -16 138 -99 154 -154 9 -31 12 -277 12 -1003 l0 -962 74 -70 c80 -76 126
-150 151 -244 89 -342 -237 -669 -578 -580 -258 67 -417 329 -352 580 25 95
71 168 151 244 l74 69 0 962 c0 727 3 973 12 1004 15 51 99 137 148 153 48 15
105 15 154 1z"/>
<path d="M2505 1255 c-24 -23 -25 -29 -25 -164 l0 -140 -53 -24 c-66 -30 -118
-81 -154 -150 -23 -44 -27 -65 -28 -137 0 -101 23 -159 93 -228 65 -65 120
-87 222 -87 102 0 157 22 222 87 67 67 92 127 93 223 0 66 -5 90 -26 136 -33
70 -87 125 -156 156 l-53 24 0 140 c0 135 -1 141 -25 164 -15 16 -36 25 -55
25 -19 0 -40 -9 -55 -25z m118 -469 c103 -43 128 -177 48 -257 -65 -65 -157
-65 -222 0 -124 123 13 325 174 257z"/>
</g>
</svg>
