<?xml version="1.0" standalone="no"?>
<!DOCTYPE svg PUBLIC "-//W3C//DTD SVG 20010904//EN"
 "http://www.w3.org/TR/2001/REC-SVG-20010904/DTD/svg10.dtd">
<svg version="1.0" xmlns="http://www.w3.org/2000/svg"
 width="512.000000pt" height="512.000000pt" viewBox="0 0 512.000000 512.000000"
 preserveAspectRatio="xMidYMid meet">

<g transform="translate(0.000000,512.000000) scale(0.100000,-0.100000)"
fill="#53613D" stroke="none">
<path d="M2440 4914 c-146 -70 -465 -195 -680 -267 -423 -142 -775 -230 -1205
-302 -170 -28 -202 -36 -217 -55 -15 -19 -18 -43 -18 -172 0 -145 1 -150 25
-173 15 -16 36 -25 55 -25 19 0 40 9 55 25 23 22 25 31 25 124 l0 99 27 6 c16
3 84 15 152 26 559 94 1230 295 1773 533 l127 56 168 -73 c539 -235 1140 -413
1735 -516 95 -17 174 -30 176 -30 2 0 1 -417 -1 -927 -3 -819 -5 -941 -21
-1037 -60 -379 -204 -709 -425 -980 -90 -110 -285 -293 -401 -378 -328 -238
-727 -416 -1138 -508 l-93 -20 -109 25 c-246 57 -435 124 -675 239 -695 335
-1116 843 -1249 1507 -41 202 -46 317 -46 987 l0 633 -25 24 c-32 33 -78 33
-111 0 l-25 -25 4 -703 c4 -746 5 -763 57 -997 51 -230 171 -515 297 -705 349
-526 942 -916 1675 -1101 195 -49 206 -50 337 -20 369 84 758 246 1053 438
588 382 924 896 1035 1583 14 86 17 235 20 1070 2 533 1 980 -2 992 -9 36 -43
50 -165 68 -591 84 -1366 313 -1929 569 -68 31 -133 56 -145 55 -12 0 -64 -21
-116 -45z"/>
<path d="M2375 3989 c-150 -20 -333 -77 -471 -147 -248 -125 -500 -377 -625
-623 -317 -630 -142 -1388 419 -1809 170 -128 361 -214 580 -262 130 -29 413
-31 546 -5 274 55 522 182 720 369 77 72 89 88 89 116 0 44 -36 82 -79 82 -27
0 -48 -14 -120 -81 -148 -137 -290 -222 -477 -284 -365 -121 -785 -65 -1102
148 -83 56 -108 77 -203 170 -343 338 -462 869 -297 1327 154 426 505 729 957
826 116 25 380 25 496 0 543 -117 938 -535 1018 -1076 35 -244 -9 -528 -116
-739 -36 -73 -38 -104 -5 -136 25 -26 63 -32 96 -15 36 20 115 203 154 359
200 802 -312 1607 -1126 1766 -100 20 -355 28 -454 14z"/>
<path d="M2265 3335 c-25 -24 -25 -24 -25 -240 l0 -215 -215 0 c-216 0 -216 0
-240 -25 l-25 -24 0 -271 0 -271 25 -24 c24 -25 24 -25 240 -25 l215 0 0 -215
c0 -216 0 -216 25 -240 l24 -25 271 0 271 0 24 25 c25 24 25 24 25 240 l0 215
215 0 c216 0 216 0 240 25 l25 24 0 271 0 271 -25 24 c-24 25 -24 25 -240 25
l-215 0 0 215 c0 216 0 216 -25 240 l-24 25 -271 0 -271 0 -24 -25z m455 -350
c0 -216 0 -216 25 -240 24 -25 24 -25 240 -25 l215 0 0 -160 0 -160 -215 0
c-288 0 -265 23 -265 -265 l0 -215 -160 0 -160 0 0 215 c0 288 23 265 -265
265 l-215 0 0 160 0 160 215 0 c288 0 265 -23 265 265 l0 215 160 0 160 0 0
-215z"/>
</g>
</svg>
