<?xml version="1.0" standalone="no"?>
<!DOCTYPE svg PUBLIC "-//W3C//DTD SVG 20010904//EN"
 "http://www.w3.org/TR/2001/REC-SVG-20010904/DTD/svg10.dtd">
<svg version="1.0" xmlns="http://www.w3.org/2000/svg"
 width="512.000000pt" height="512.000000pt" viewBox="0 0 512.000000 512.000000"
 preserveAspectRatio="xMidYMid meet">

<g transform="translate(0.000000,512.000000) scale(0.100000,-0.100000)"
fill="#ec88b8" stroke="none">
<path d="M2392 5110 c-636 -81 -1128 -549 -1249 -1190 -12 -67 -17 -194 -23
-595 -8 -545 -10 -563 -65 -737 -20 -63 -25 -94 -20 -128 14 -96 72 -162 172
-200 150 -57 708 -200 778 -200 13 0 15 -10 13 -56 l-3 -56 -160 -75 c-210
-98 -246 -133 -246 -237 l0 -51 -282 -99 c-155 -55 -316 -115 -357 -135 -133
-63 -239 -192 -287 -346 -16 -54 -18 -102 -18 -513 l0 -454 24 -19 c32 -26 67
-24 96 6 l25 24 0 414 c0 238 4 437 10 468 22 116 106 232 206 282 47 23 642
237 661 237 5 0 25 -21 44 -48 l36 -47 -34 -50 c-59 -84 -83 -144 -83 -205 0
-47 11 -78 76 -220 42 -91 84 -184 95 -207 l18 -43 -114 0 -115 0 0 58 c0 48
-4 62 -23 80 -59 56 -127 6 -127 -93 l0 -45 -174 0 c-242 0 -220 28 -224 -291
-2 -140 0 -264 3 -277 3 -12 14 -31 25 -42 19 -19 35 -20 444 -20 515 0 474
-12 478 143 l3 102 53 -109 c54 -112 72 -135 108 -136 34 0 74 37 74 70 0 17
-96 238 -225 518 -130 283 -225 501 -225 518 0 19 22 62 65 126 42 64 65 108
65 126 0 20 -23 59 -78 133 -99 131 -105 142 -89 162 10 13 287 152 287 144 0
-1 38 -145 84 -320 47 -180 91 -326 100 -335 9 -9 32 -16 52 -16 47 0 77 34
72 81 -3 26 -1 32 12 29 80 -23 120 -28 215 -28 65 1 132 7 165 16 30 8 55 14
56 13 4 -4 -221 -847 -226 -847 -3 0 -32 102 -64 228 -71 270 -81 301 -104
318 -46 35 -112 1 -112 -58 0 -18 47 -213 105 -432 111 -423 120 -446 175
-446 58 0 57 -3 290 886 122 461 225 856 231 876 l9 37 138 -65 c75 -36 142
-72 149 -81 16 -20 10 -31 -89 -162 -55 -74 -78 -113 -78 -133 0 -18 23 -62
65 -126 43 -64 65 -107 65 -126 0 -17 -95 -235 -225 -518 -129 -280 -225 -501
-225 -518 0 -53 71 -88 113 -56 10 8 122 238 249 513 197 425 232 507 236 556
5 69 -10 116 -68 202 -22 33 -40 64 -40 68 0 14 62 97 73 97 18 0 614 -214
661 -237 100 -50 184 -166 206 -282 6 -31 10 -230 10 -468 l0 -414 25 -24 c29
-30 64 -32 96 -6 l24 19 0 454 c0 411 -2 459 -18 513 -48 154 -154 283 -287
346 -41 20 -202 80 -356 135 l-281 98 -1 52 c-1 104 -37 139 -247 237 l-160
75 -3 56 c-2 46 0 56 13 56 70 0 628 143 778 200 100 38 158 104 172 200 5 34
0 65 -20 128 -55 174 -57 192 -65 737 -8 545 -11 581 -65 770 -14 50 -52 144
-84 210 -202 414 -563 694 -1011 785 -120 24 -335 34 -448 20z m413 -165 c459
-94 823 -412 971 -846 41 -121 60 -224 70 -378 l7 -114 -24 6 c-13 3 -53 11
-89 17 -36 6 -118 25 -183 40 -126 31 -156 29 -176 -9 -31 -57 -3 -98 81 -121
l63 -17 3 -189 c6 -371 -33 -548 -164 -746 -143 -214 -359 -361 -612 -413
-100 -21 -284 -21 -384 0 -253 52 -469 199 -612 413 -127 191 -166 356 -166
703 0 157 -2 179 -18 200 -25 30 -75 30 -105 0 -21 -21 -22 -27 -21 -259 1
-184 5 -256 18 -320 50 -237 146 -415 319 -585 54 -55 91 -97 81 -93 -11 3
-84 21 -164 40 -188 45 -469 132 -491 152 -29 26 -30 59 -5 141 54 172 59 221
65 642 l6 394 95 33 c245 83 482 207 690 359 168 123 195 125 345 21 169 -118
453 -268 644 -342 67 -26 75 -27 99 -13 40 22 53 56 38 93 -11 27 -28 37 -122
76 -206 86 -386 184 -591 321 -117 78 -162 93 -253 87 -77 -6 -116 -24 -228
-107 -171 -127 -361 -231 -587 -322 l-120 -49 -3 28 c-5 38 16 161 43 251 133
445 476 776 923 890 44 12 111 25 148 30 95 14 313 6 409 -14z m978 -1476 l67
-11 0 -278 c0 -337 10 -432 66 -613 25 -82 24 -115 -5 -141 -27 -25 -366 -126
-582 -174 l-86 -19 97 96 c169 167 265 344 316 581 11 52 17 152 21 328 5 226
8 252 22 248 9 -3 46 -10 84 -17z m-1568 -1409 c96 -33 221 -52 345 -52 124 0
249 19 345 52 32 11 60 20 62 20 1 0 3 -33 3 -72 0 -58 -13 -126 -66 -330
l-67 -257 -51 -22 c-28 -12 -90 -28 -138 -37 -78 -13 -98 -13 -175 0 -49 9
-111 25 -139 37 l-51 22 -67 257 c-53 204 -66 272 -66 330 0 39 2 72 3 72 2 0
30 -9 62 -20z m-764 -1609 c9 -27 44 -51 73 -51 22 0 66 40 66 61 0 18 8 19
125 19 l125 0 0 -165 0 -165 -325 0 -325 0 0 165 0 165 126 0 125 0 10 -29z"/>
<path d="M1975 3591 c-32 -14 -48 -39 -47 -74 1 -55 28 -67 153 -67 125 0 149
12 149 73 0 57 -27 72 -139 74 -53 2 -105 -1 -116 -6z"/>
<path d="M2940 3593 c-52 -20 -68 -85 -30 -123 18 -18 33 -20 129 -20 89 0
113 3 130 18 30 24 31 76 2 105 -19 19 -34 22 -119 24 -53 1 -104 0 -112 -4z"/>
<path d="M2050 3347 c-38 -19 -52 -54 -46 -122 5 -68 27 -95 77 -95 51 0 69
30 69 113 0 58 -4 77 -17 89 -27 24 -55 29 -83 15z"/>
<path d="M3020 3353 c-41 -15 -50 -35 -50 -110 0 -60 4 -77 20 -93 25 -25 71
-26 101 -1 21 17 24 28 24 90 0 57 -4 74 -20 90 -23 22 -53 32 -75 24z"/>
<path d="M2175 2911 c-39 -16 -48 -37 -43 -103 13 -203 199 -358 428 -358 231
0 416 156 428 360 4 57 1 68 -18 85 -21 19 -38 20 -399 22 -207 1 -385 -2
-396 -6z m655 -149 c0 -20 -62 -93 -97 -115 -57 -36 -99 -47 -173 -47 -74 0
-116 11 -173 47 -35 22 -97 95 -97 115 0 4 122 8 270 8 149 0 270 -4 270 -8z"/>
<path d="M3752 767 c-19 -20 -22 -35 -22 -100 l0 -77 -78 0 c-69 0 -81 -3
-100 -23 -31 -33 -29 -80 4 -106 22 -17 41 -21 100 -21 l74 0 0 -79 c0 -74 2
-81 26 -100 69 -54 124 -3 124 113 l0 66 65 0 c76 0 110 13 125 49 13 33 0 75
-29 90 -11 6 -51 11 -89 11 l-70 0 -4 81 c-3 70 -6 83 -27 100 -32 26 -73 24
-99 -4z"/>
</g>
</svg>
