<?xml version="1.0" standalone="no"?>
<!DOCTYPE svg PUBLIC "-//W3C//DTD SVG 20010904//EN"
 "http://www.w3.org/TR/2001/REC-SVG-20010904/DTD/svg10.dtd">
<svg version="1.0" xmlns="http://www.w3.org/2000/svg"
 width="512.000000pt" height="512.000000pt" viewBox="0 0 512.000000 512.000000"
 preserveAspectRatio="xMidYMid meet">

<g transform="translate(0.000000,512.000000) scale(0.100000,-0.100000)"
fill="#ec88b8" stroke="none">
<path d="M1035 5095 c-33 -32 -31 -56 6 -135 41 -87 92 -238 113 -333 20 -88
41 -117 86 -117 40 0 70 31 70 74 0 108 -133 486 -183 521 -31 22 -65 18 -92
-10z"/>
<path d="M3997 5109 c-45 -26 -155 -323 -189 -508 -28 -159 -30 -414 -4 -561
56 -315 177 -595 445 -1029 218 -354 299 -500 376 -686 124 -299 175 -541 175
-833 0 -175 -8 -244 -46 -412 -60 -269 -156 -539 -335 -947 -27 -62 -20 -98
23 -122 46 -26 78 -7 115 69 131 262 285 698 347 980 35 163 46 262 46 437 0
490 -138 885 -537 1533 -187 304 -238 395 -304 540 -222 492 -234 935 -38
1371 46 101 47 121 14 154 -25 26 -58 31 -88 14z"/>
<path d="M1213 4328 c-16 -18 -22 -43 -27 -108 -16 -202 -66 -397 -156 -607
-65 -151 -136 -279 -323 -583 -397 -645 -537 -1043 -537 -1528 0 -226 25 -387
101 -652 77 -271 277 -778 326 -827 12 -13 34 -23 48 -23 31 0 75 41 75 70 0
12 -25 77 -55 146 -143 323 -240 604 -299 864 -38 167 -46 237 -46 412 0 297
53 544 180 843 84 198 140 300 358 654 229 372 327 572 402 821 43 142 70 296
73 418 2 77 0 85 -22 103 -31 26 -73 24 -98 -3z"/>
<path d="M2516 2999 c-52 -41 -22 -129 44 -129 66 0 96 88 44 129 -15 12 -34
21 -44 21 -10 0 -29 -9 -44 -21z"/>
<path d="M2112 1975 c-199 -56 -331 -261 -294 -456 24 -130 38 -149 368 -479
l304 -306 0 -346 0 -347 26 -20 c34 -26 54 -26 88 0 l26 20 0 347 0 346 155
156 c135 136 155 161 155 188 0 41 -31 72 -72 72 -27 0 -50 -19 -170 -137
l-138 -137 -275 274 c-186 186 -283 290 -298 320 -30 62 -30 168 0 226 85 162
298 191 423 59 118 -125 183 -125 300 0 125 134 337 104 423 -60 16 -29 21
-59 22 -110 0 -85 -16 -121 -91 -205 -61 -69 -67 -98 -29 -135 41 -42 71 -34
143 40 134 138 167 321 85 483 -32 62 -112 146 -168 175 -94 48 -209 59 -306
31 -67 -20 -108 -44 -180 -105 l-56 -48 -44 45 c-24 25 -76 61 -115 80 -59 30
-85 36 -150 40 -52 3 -97 -1 -132 -11z"/>
</g>
</svg>
