<?xml version="1.0" standalone="no"?>
<!DOCTYPE svg PUBLIC "-//W3C//DTD SVG 20010904//EN"
 "http://www.w3.org/TR/2001/REC-SVG-20010904/DTD/svg10.dtd">
<svg version="1.0" xmlns="http://www.w3.org/2000/svg"
 width="512.000000pt" height="512.000000pt" viewBox="0 0 512.000000 512.000000"
 preserveAspectRatio="xMidYMid meet">

<g transform="translate(0.000000,512.000000) scale(0.100000,-0.100000)"
fill="#53613D" stroke="none">
<path d="M4771 5104 c-19 -8 -87 -56 -150 -108 -64 -51 -161 -128 -216 -171
-55 -42 -104 -84 -108 -91 -27 -48 25 -123 76 -110 25 6 125 80 338 252 64 52
123 94 131 94 61 0 81 -170 82 -680 1 -401 -10 -545 -64 -865 -107 -626 -343
-1198 -674 -1639 -147 -195 -240 -270 -406 -328 -30 -10 -260 -55 -510 -99
-426 -74 -456 -81 -477 -105 -27 -30 -29 -51 -7 -82 28 -40 51 -42 190 -16
173 32 170 32 178 -15 3 -21 24 -66 47 -100 25 -38 38 -67 35 -78 -7 -22 -90
-68 -239 -134 -62 -27 -120 -59 -129 -70 -25 -30 -22 -66 8 -96 37 -37 67 -29
270 71 180 89 208 111 233 185 22 66 6 131 -48 199 -33 42 -39 73 -18 90 6 5
109 26 227 46 118 21 249 49 290 62 163 55 293 147 409 294 454 570 723 1274
818 2140 33 301 23 975 -18 1195 -14 72 -50 122 -112 151 -59 27 -107 30 -156
8z"/>
<path d="M4025 4543 c-136 -80 -419 -279 -466 -329 -76 -81 -100 -126 -168
-314 -33 -90 -66 -169 -74 -177 -25 -26 -65 -6 -101 52 -39 61 -86 93 -147
101 -101 14 -421 -124 -661 -285 -172 -115 -291 -216 -459 -388 -257 -263
-268 -298 -251 -768 6 -180 5 -243 -4 -253 -9 -11 -22 -8 -68 18 -50 28 -64
32 -112 28 -107 -9 -129 -41 -205 -294 -122 -406 -216 -774 -289 -1138 -22
-104 -42 -192 -47 -197 -4 -4 -208 -109 -451 -233 -244 -123 -452 -232 -463
-242 -29 -26 -25 -78 7 -103 15 -12 36 -21 47 -21 11 0 227 105 481 234 l461
234 94 -19 c188 -39 329 -52 551 -52 287 0 499 25 783 95 146 36 180 56 180
106 0 67 -51 87 -149 57 -230 -70 -672 -124 -899 -110 -145 8 -316 26 -337 34
-15 5 11 25 119 91 75 47 218 141 318 209 840 577 1559 1286 2392 2360 168
216 179 239 127 280 -33 26 -65 27 -92 4 -10 -10 -96 -117 -190 -239 -797
-1026 -1534 -1748 -2357 -2306 -136 -92 -429 -278 -438 -278 -8 0 60 312 118
547 59 234 138 519 199 716 40 126 46 132 94 99 34 -24 87 -42 122 -42 27 0
27 0 32 -87 4 -74 8 -89 27 -105 29 -23 72 -23 101 0 26 21 27 46 10 322 -6
91 -11 278 -13 415 l-2 250 33 67 c56 115 325 380 547 540 178 128 391 239
555 289 l73 22 23 -29 c65 -82 80 -97 115 -115 21 -10 44 -19 51 -19 42 -1 42
-13 2 -173 -32 -131 -36 -159 -26 -181 25 -56 109 -54 131 2 5 15 29 97 51
182 69 260 159 540 200 620 39 76 102 130 306 265 110 73 208 143 217 156 24
33 21 66 -8 94 -29 30 -50 31 -90 8z"/>
</g>
</svg>
