<?xml version="1.0" standalone="no"?>
<!DOCTYPE svg PUBLIC "-//W3C//DTD SVG 20010904//EN"
 "http://www.w3.org/TR/2001/REC-SVG-20010904/DTD/svg10.dtd">
<svg version="1.0" xmlns="http://www.w3.org/2000/svg"
 width="1200.000000pt" height="953.000000pt" viewBox="0 0 1200.000000 953.000000"
 preserveAspectRatio="xMidYMid meet">
<metadata>
Created by potrace 1.16, written by Peter Selinger 2001-2019
</metadata>
<g transform="translate(0.000000,953.000000) scale(0.100000,-0.100000)"
fill="#000000" stroke="none">
<path d="M7840 9500 c152 -56 296 -145 395 -245 111 -112 160 -210 190 -381
28 -162 19 -351 -36 -754 -19 -136 -23 -211 -23 -425 -1 -486 69 -856 211
-1125 58 -111 112 -180 197 -252 71 -59 115 -83 52 -27 -55 48 -125 146 -168
234 -160 332 -208 975 -123 1665 32 265 39 414 26 535 -40 351 -168 555 -433
687 -90 45 -225 91 -304 102 -35 6 -33 4 16 -14z"/>
<path d="M7160 9471 c-314 -69 -529 -141 -736 -246 -293 -148 -477 -315 -578
-528 -110 -231 -108 -473 6 -749 17 -43 33 -77 34 -75 2 2 -6 48 -18 102 -30
141 -29 348 1 460 102 380 413 625 1231 970 124 52 216 94 205 94 -11 0 -76
-13 -145 -28z"/>
<path d="M5975 8505 c20 -88 90 -275 138 -372 185 -368 469 -633 865 -808 61
-27 109 -52 107 -56 -11 -16 -153 -104 -242 -148 -184 -91 -273 -122 -298
-101 -8 6 -26 47 -40 90 -16 47 -38 90 -55 109 -16 17 -25 33 -20 36 16 10 50
82 50 104 0 28 -37 50 -115 68 -69 15 -98 34 -89 57 3 8 -3 29 -13 48 l-18 33
-3 -88 c-3 -103 4 -117 58 -117 l38 0 -1 -47 c-2 -47 -2 -47 38 -58 53 -16 73
-52 85 -154 11 -93 30 -138 68 -152 65 -26 208 12 335 88 l57 35 34 -21 c19
-12 41 -32 50 -46 15 -24 15 -25 -11 -41 -88 -54 -114 -73 -172 -128 -98 -94
-156 -170 -435 -571 -597 -860 -859 -1196 -1251 -1605 -66 -68 -113 -120 -105
-114 63 44 243 196 343 289 382 352 759 815 1232 1515 76 113 163 239 194 280
159 216 312 305 521 304 108 -1 204 -25 448 -114 179 -66 358 -117 369 -107 2
3 -22 13 -54 22 -32 9 -156 64 -276 121 -297 142 -349 157 -546 159 -140 2
-154 4 -163 21 -6 10 -29 38 -51 61 l-41 42 25 20 c14 11 38 38 54 61 33 48
20 48 190 -4 117 -36 457 -110 477 -104 5 2 -30 16 -79 32 -162 51 -446 169
-615 253 -484 242 -782 535 -1019 999 -39 76 -67 125 -64 109z"/>
<path d="M6128 7950 c-4 -89 -10 -117 -36 -180 -18 -41 -32 -79 -32 -84 0 -19
81 69 100 109 28 58 27 145 -4 210 l-23 50 -5 -105z"/>
<path d="M5928 7634 c6 -108 -18 -200 -103 -389 -88 -196 -111 -264 -125 -378
-20 -158 17 -345 104 -527 39 -81 39 -80 10 75 -22 111 -30 355 -15 440 7 37
27 111 45 164 19 53 54 155 79 226 25 72 49 158 52 191 8 70 -7 180 -34 239
l-18 40 5 -81z"/>
<path d="M6000 6883 c-34 -120 -21 -244 45 -436 52 -150 70 -257 62 -376 -4
-75 -3 -83 9 -66 24 33 54 124 66 202 15 102 0 182 -62 339 -60 150 -90 254
-93 323 -2 60 -12 65 -27 14z"/>
<path d="M8541 6266 c27 -88 95 -281 154 -431 229 -588 273 -754 282 -1080 18
-647 -114 -1428 -334 -1965 -46 -112 -136 -313 -213 -475 -215 -454 -254 -548
-410 -1010 -176 -521 -271 -692 -465 -837 -100 -76 -186 -120 -315 -165 -108
-37 -104 -42 9 -13 95 24 200 67 283 115 247 145 384 356 588 910 113 306 191
484 407 920 96 194 220 464 253 550 12 30 12 29 30 -40 20 -76 57 -179 96
-262 45 -99 124 -214 402 -586 153 -204 306 -410 340 -457 134 -184 401 -529
425 -549 28 -22 -191 375 -321 584 -177 284 -288 437 -506 700 -250 300 -321
400 -401 566 l-45 94 41 115 c80 226 164 602 203 910 43 337 47 941 8 1130
-53 256 -130 458 -364 965 -41 88 -92 205 -113 260 -47 121 -61 142 -34 51z"/>
<path d="M7285 5718 c-405 -288 -761 -652 -1299 -1328 -81 -102 -184 -230
-229 -285 -108 -134 -109 -135 -58 -95 121 95 415 376 596 570 68 73 254 280
480 536 250 282 361 403 498 542 72 72 127 132 122 132 -6 -1 -55 -33 -110
-72z"/>
<path d="M3855 5414 c-151 -32 -335 -147 -457 -286 -137 -158 -208 -270 -368
-583 -65 -126 -144 -277 -175 -335 -93 -174 -212 -436 -202 -447 2 -1 32 41
68 94 35 54 101 148 147 210 130 178 220 321 349 553 66 118 149 260 184 315
170 261 343 411 549 476 l55 17 -40 0 c-22 0 -71 -6 -110 -14z"/>
<path d="M4126 5421 c5 -4 32 -16 59 -26 72 -25 181 -87 273 -153 88 -63 356
-298 526 -462 60 -58 106 -96 102 -85 -29 82 -175 274 -312 411 -163 162 -303
250 -467 293 -77 21 -196 35 -181 22z"/>
<path d="M4730 4516 c-187 -49 -371 -110 -609 -203 -90 -35 -165 -62 -166 -61
-1 2 -7 21 -13 43 -15 51 -95 161 -101 138 -2 -9 17 -57 43 -107 25 -49 45
-91 43 -92 -1 -1 -45 -20 -97 -42 -52 -22 -201 -86 -330 -142 -129 -56 -343
-145 -475 -197 -226 -89 -459 -192 -452 -200 2 -2 30 6 63 18 32 11 149 45
259 75 416 114 651 204 1280 491 193 88 436 195 540 238 105 42 192 79 194 81
8 8 -17 2 -179 -40z"/>
<path d="M6460 4535 c-7 -18 -10 -63 -8 -110 4 -67 10 -90 37 -142 103 -192
349 -283 530 -196 l56 27 -70 7 c-128 13 -269 79 -377 178 -71 65 -107 119
-134 199 l-23 67 -11 -30z"/>
<path d="M6952 3946 c-27 -85 -29 -219 -6 -386 29 -208 10 -339 -72 -489 -51
-93 -168 -281 -175 -281 -3 0 -10 10 -16 23 -19 41 -133 185 -221 279 -99 105
-302 348 -536 641 -87 108 -160 197 -162 197 -5 0 54 -109 124 -230 154 -265
311 -477 492 -666 159 -164 240 -262 316 -375 58 -87 144 -252 144 -277 0 -6
4 -13 9 -16 26 -16 -35 195 -90 309 -21 46 -39 87 -39 91 0 5 39 43 87 84 145
125 227 243 268 385 14 47 16 82 12 170 -4 92 -13 135 -52 265 -34 112 -49
181 -54 250 l-7 95 -22 -69z"/>
<path d="M5505 3894 c-267 -95 -794 -224 -1380 -339 -555 -109 -1179 -252
-1147 -263 17 -5 755 95 982 134 113 19 216 36 230 37 23 2 34 -16 142 -233
65 -129 150 -305 189 -390 68 -149 102 -227 239 -555 234 -559 535 -1054 862
-1415 120 -133 296 -287 416 -367 240 -158 549 -254 807 -252 l100 1 -95 13
c-278 39 -553 153 -770 320 -98 75 -324 305 -432 440 -245 307 -504 728 -721
1175 -57 118 -140 289 -185 380 -114 235 -256 485 -429 754 -45 71 -80 132
-77 137 3 5 12 9 21 9 9 0 106 21 217 46 393 90 795 226 1046 354 87 45 83 48
-15 14z"/>
<path d="M2391 3539 c-200 -149 -338 -287 -440 -438 -115 -173 -147 -263 -200
-566 -41 -233 -58 -285 -132 -405 -15 -26 -6 -19 39 28 89 93 140 200 200 417
58 206 77 259 136 371 86 162 198 314 404 547 57 64 100 117 95 117 -4 0 -50
-32 -102 -71z"/>
<path d="M9086 3465 c5 -11 39 -81 77 -155 418 -821 566 -1121 627 -1270 121
-297 231 -508 409 -783 35 -54 65 -96 67 -94 2 2 -30 82 -72 178 -96 219 -206
499 -274 694 -88 252 -179 438 -371 761 -86 144 -273 426 -382 574 -81 111
-91 123 -81 95z"/>
<path d="M3906 3306 c-86 -148 -248 -312 -572 -581 -253 -211 -334 -284 -598
-544 -324 -318 -477 -508 -574 -711 -37 -77 -77 -183 -59 -156 205 314 295
413 697 775 58 52 148 135 200 185 52 50 199 186 325 302 331 304 465 460 566
660 53 106 63 152 15 70z"/>
<path d="M4114 3298 c-31 -60 -152 -234 -235 -339 -138 -173 -271 -296 -564
-521 -190 -145 -530 -434 -739 -628 -118 -109 -287 -347 -286 -402 1 -7 8 1
17 17 66 123 187 246 424 430 85 66 226 178 314 250 88 72 212 170 275 220
404 314 579 515 756 867 49 97 66 138 59 138 -2 0 -12 -15 -21 -32z"/>
<path d="M2898 3283 c-10 -24 -130 -116 -272 -210 -188 -125 -333 -262 -431
-406 -33 -49 -97 -141 -141 -205 -45 -64 -80 -119 -78 -121 10 -12 178 136
312 275 86 91 202 204 257 251 145 127 252 231 295 288 45 60 84 135 71 135
-5 0 -11 -3 -13 -7z"/>
<path d="M1731 2027 c-81 -94 -195 -210 -446 -452 -262 -253 -306 -304 -475
-550 -284 -413 -344 -491 -483 -633 -100 -102 -183 -172 -264 -222 -29 -17
-53 -33 -53 -35 0 -7 76 23 141 55 263 133 530 407 847 872 96 140 163 222
294 361 139 148 272 311 364 447 67 99 140 220 132 220 -1 0 -27 -28 -57 -63z"/>
<path d="M2111 1185 c-1 -33 4 -76 9 -95 36 -126 30 -196 -22 -256 -74 -84
-163 -111 -413 -124 -230 -13 -321 -25 -415 -57 -144 -47 -244 -117 -430 -297
-116 -112 -182 -162 -286 -214 -105 -53 -224 -88 -364 -109 -63 -9 -119 -20
-124 -25 -17 -14 276 -9 365 7 201 35 321 99 554 296 230 194 314 228 650 264
197 21 286 40 363 76 109 50 172 115 198 207 19 63 10 117 -37 230 -17 41 -34
93 -39 115 -8 42 -8 41 -9 -18z"/>
<path d="M10375 1068 c112 -67 328 -153 497 -197 254 -67 627 -111 928 -110
l195 2 -100 13 c-55 8 -224 34 -375 59 -151 24 -336 54 -410 66 -257 40 -402
75 -760 186 -8 3 3 -6 25 -19z"/>
<path d="M10120 792 c23 -84 95 -168 176 -204 23 -10 79 -23 124 -30 68 -9
101 -8 208 7 160 23 155 23 471 -20 115 -15 325 -19 370 -6 18 5 3 10 -55 18
-43 6 -169 34 -279 61 -275 69 -353 77 -475 51 -148 -31 -284 -36 -356 -13
-59 18 -135 80 -177 144 l-16 25 9 -33z"/>
<path d="M11190 700 c91 -44 170 -62 305 -67 126 -5 291 13 333 36 9 5 -66 11
-184 15 -195 7 -364 19 -454 31 l-45 6 45 -21z"/>
</g>
</svg>
