<?xml version="1.0" standalone="no"?>
<!DOCTYPE svg PUBLIC "-//W3C//DTD SVG 20010904//EN"
 "http://www.w3.org/TR/2001/REC-SVG-20010904/DTD/svg10.dtd">
<svg version="1.0" xmlns="http://www.w3.org/2000/svg"
 width="512.000000pt" height="512.000000pt" viewBox="0 0 512.000000 512.000000"
 preserveAspectRatio="xMidYMid meet">

<g transform="translate(0.000000,512.000000) scale(0.100000,-0.100000)"
fill="#ec88b8" stroke="none">
<path d="M4240 4657 c-14 -7 -503 -568 -1087 -1247 -585 -679 -1073 -1240
-1085 -1247 -33 -18 -99 -16 -129 5 -14 9 -266 244 -558 522 -293 278 -548
513 -567 524 -26 14 -45 17 -79 12 -47 -7 -72 -32 -651 -648 -79 -84 -95 -121
-75 -181 9 -26 239 -250 992 -963 539 -511 996 -941 1016 -956 39 -31 85 -36
129 -16 23 11 2906 3347 2953 3418 20 30 20 109 0 137 -17 25 -692 608 -734
634 -35 22 -89 24 -125 6z"/>
</g>
</svg>
