<?xml version="1.0" standalone="no"?>
<!DOCTYPE svg PUBLIC "-//W3C//DTD SVG 20010904//EN"
 "http://www.w3.org/TR/2001/REC-SVG-20010904/DTD/svg10.dtd">
<svg version="1.0" xmlns="http://www.w3.org/2000/svg"
 width="512.000000pt" height="512.000000pt" viewBox="0 0 512.000000 512.000000"
 preserveAspectRatio="xMidYMid meet">

<g transform="translate(0.000000,512.000000) scale(0.100000,-0.100000)"
fill="#53613D" stroke="none">
<path d="M328 4349 c-119 -28 -229 -120 -287 -239 l-36 -75 0 -1475 0 -1475
36 -75 c59 -122 155 -202 284 -236 75 -21 4396 -20 4472 0 155 41 268 154 309
311 11 41 14 317 14 1475 0 1158 -3 1434 -14 1475 -42 157 -165 279 -317 314
-56 13 -4407 13 -4461 0z m4464 -159 c68 -25 132 -90 158 -158 20 -51 20 -82
20 -1472 0 -1390 0 -1421 -20 -1472 -26 -68 -90 -133 -158 -158 -52 -20 -81
-20 -2232 -20 -2151 0 -2180 0 -2232 20 -68 25 -132 90 -158 158 -20 51 -20
82 -20 1472 0 1392 0 1420 20 1472 25 67 89 132 156 158 48 19 101 19 2231 20
2155 0 2183 0 2235 -20z"/>
<path d="M1116 3424 c-265 -64 -447 -318 -422 -590 28 -308 258 -637 672 -960
123 -96 274 -194 299 -194 29 0 197 111 335 220 130 103 337 310 411 410 246
332 294 638 139 880 -40 62 -132 147 -199 184 -62 33 -188 66 -256 66 -135 0
-279 -55 -369 -140 l-55 -52 -53 46 c-141 123 -329 172 -502 130z m275 -163
c66 -25 134 -82 191 -158 22 -30 49 -58 61 -62 33 -12 76 7 93 42 24 45 100
123 149 152 156 91 374 60 494 -71 230 -249 88 -661 -363 -1053 -102 -89 -296
-237 -333 -254 -18 -8 -34 -1 -105 49 -241 168 -447 364 -577 547 -104 148
-170 344 -158 468 29 270 297 436 548 340z"/>
<path d="M1165 3128 c-32 -11 -92 -52 -113 -78 -42 -51 -70 -139 -58 -185 8
-31 57 -58 91 -49 31 8 50 36 59 86 8 45 55 88 97 88 37 0 79 40 79 75 0 40
-41 75 -87 74 -21 0 -51 -5 -68 -11z"/>
<path d="M2500 1980 c-43 -43 -14 -113 52 -125 18 -3 286 -5 594 -3 536 3 563
4 583 22 27 25 28 79 1 106 -20 20 -33 20 -615 20 -582 0 -595 0 -615 -20z"/>
<path d="M2500 1680 c-43 -43 -14 -113 52 -125 18 -3 437 -4 931 -3 l899 3 24
28 c29 34 30 56 3 91 l-20 26 -935 0 c-921 0 -934 0 -954 -20z"/>
</g>
</svg>
