<?xml version="1.0" standalone="no"?>
<!DOCTYPE svg PUBLIC "-//W3C//DTD SVG 20010904//EN"
 "http://www.w3.org/TR/2001/REC-SVG-20010904/DTD/svg10.dtd">
<svg version="1.0" xmlns="http://www.w3.org/2000/svg"
 width="512.000000pt" height="512.000000pt" viewBox="0 0 512.000000 512.000000"
 preserveAspectRatio="xMidYMid meet">

<g transform="translate(0.000000,512.000000) scale(0.100000,-0.100000)"
fill="#ec88b8" stroke="none">
<path d="M2515 4255 l-25 -24 0 -286 c0 -272 1 -286 20 -305 11 -11 33 -20 50
-20 17 0 39 9 50 20 19 19 20 33 20 305 l0 286 -25 24 c-31 32 -59 32 -90 0z"/>
<path d="M1747 3942 c-10 -10 -17 -32 -17 -48 0 -25 31 -61 204 -233 182 -181
208 -204 237 -204 21 0 38 7 51 22 39 49 31 62 -185 278 -188 189 -205 203
-238 203 -22 0 -42 -7 -52 -18z"/>
<path d="M3094 3768 c-106 -105 -198 -204 -205 -220 -23 -55 29 -110 84 -89
12 5 111 99 220 208 211 213 220 228 174 271 -50 47 -65 38 -273 -170z"/>
<path d="M2493 3420 c-179 -37 -299 -231 -249 -402 9 -31 32 -80 51 -109 l36
-52 -107 -176 c-58 -97 -110 -180 -116 -186 -6 -7 -72 54 -191 178 -159 163
-186 187 -213 187 -16 0 -37 -6 -46 -12 -9 -7 -60 -112 -114 -233 -53 -121
-100 -224 -104 -228 -4 -5 -68 35 -141 88 l-134 97 0 96 c0 86 -3 103 -27 147
-98 185 -325 227 -478 89 -23 -21 -53 -61 -68 -88 -35 -68 -38 -187 -6 -257
49 -106 139 -168 259 -178 l69 -6 223 -590 222 -590 1 -153 c0 -149 1 -154 25
-177 l24 -25 1151 0 1151 0 24 25 c24 23 25 28 25 177 l1 153 222 590 223 590
69 6 c115 9 203 67 252 167 37 76 39 181 4 259 -48 107 -156 177 -276 177
-119 0 -215 -60 -273 -169 -24 -44 -27 -61 -27 -147 l0 -96 -134 -97 c-73 -53
-137 -93 -141 -88 -4 4 -51 107 -104 228 -54 121 -105 226 -114 233 -9 6 -30
12 -46 12 -27 0 -54 -24 -213 -187 -119 -124 -185 -185 -191 -178 -6 6 -58 90
-117 187 l-107 177 26 33 c104 137 94 320 -24 438 -74 74 -195 111 -297 90z
m156 -158 c18 -8 46 -33 61 -54 52 -71 48 -160 -9 -232 -37 -47 -55 -99 -48
-141 5 -32 527 -902 551 -918 33 -22 58 -19 104 14 26 18 208 150 404 292 284
206 360 266 373 294 14 29 16 51 10 119 -6 76 -5 87 16 124 66 118 231 113
290 -8 25 -52 22 -120 -8 -160 -38 -51 -69 -66 -154 -73 -93 -8 -134 -33 -162
-96 -10 -21 -111 -288 -226 -593 l-208 -555 -1083 0 -1083 0 -208 555 c-115
305 -216 572 -226 593 -28 63 -69 88 -162 96 -57 5 -88 13 -108 27 -71 53 -91
131 -54 208 58 120 224 123 290 6 21 -37 22 -48 16 -124 -8 -96 5 -138 56
-175 179 -133 765 -554 775 -558 44 -17 65 11 338 459 185 303 270 452 273
478 6 40 -17 98 -61 158 -52 69 -42 166 23 231 60 60 138 72 220 33z m-707
-1043 c-46 -77 -89 -138 -95 -136 -22 7 -286 203 -287 212 0 6 37 93 82 194
l82 185 152 -158 151 -158 -85 -139z m1538 266 c44 -98 80 -183 80 -189 0 -10
-257 -202 -284 -212 -9 -3 -43 44 -98 134 l-85 140 150 157 c82 86 151 154
153 152 2 -2 40 -84 84 -182z m140 -1430 l0 -75 -1060 0 -1060 0 0 75 0 75
1060 0 1060 0 0 -75z"/>
<path d="M2517 2228 c-14 -13 -75 -102 -136 -198 -87 -136 -111 -180 -106
-198 3 -13 59 -105 123 -205 l118 -182 44 0 44 0 120 185 c76 118 119 194 119
211 0 29 -198 348 -240 387 -13 12 -33 22 -43 22 -10 0 -30 -10 -43 -22z m105
-275 c30 -49 58 -94 62 -101 7 -11 -111 -212 -124 -212 -13 0 -131 201 -124
212 28 50 119 188 124 188 3 0 31 -39 62 -87z"/>
</g>
</svg>
