<?xml version="1.0" standalone="no"?>
<!DOCTYPE svg PUBLIC "-//W3C//DTD SVG 20010904//EN"
 "http://www.w3.org/TR/2001/REC-SVG-20010904/DTD/svg10.dtd">
<svg version="1.0" xmlns="http://www.w3.org/2000/svg"
 width="512.000000pt" height="512.000000pt" viewBox="0 0 512.000000 512.000000"
 preserveAspectRatio="xMidYMid meet">
<g transform="translate(0.000000,512.000000) scale(0.100000,-0.100000)"
fill="#ec88b8" stroke="none">
<path d="M2360 5109 c-402 -46 -781 -229 -1071 -518 -480 -481 -650 -1189
-438 -1833 67 -206 127 -306 928 -1548 424 -657 776 -1195 781 -1195 5 0 357
538 781 1195 803 1246 861 1343 929 1550 225 692 3 1474 -548 1933 -384 320
-878 471 -1362 416z m425 -918 c321 -85 570 -339 652 -668 26 -103 23 -323 -6
-428 -118 -436 -544 -724 -985 -666 -361 48 -661 311 -757 666 -32 115 -32
335 0 450 92 341 356 587 707 660 97 20 285 13 389 -14z"/>
</g>
</svg>
