<?xml version="1.0" encoding="UTF-8"?>
<!DOCTYPE svg PUBLIC "-//W3C//DTD SVG 1.1//EN" "http://www.w3.org/Graphics/SVG/1.1/DTD/svg11.dtd">
<!-- Creator: CorelDRAW 2019 (64-Bit) -->
<svg xmlns="http://www.w3.org/2000/svg" xml:space="preserve" width="19.2766mm" height="38.7875mm" version="1.1" style="shape-rendering:geometricPrecision; text-rendering:geometricPrecision; image-rendering:optimizeQuality; fill-rule:evenodd; clip-rule:evenodd"
viewBox="0 0 672.07 1352.31"
 xmlns:xlink="http://www.w3.org/1999/xlink"
 xmlns:xodm="http://www.corel.com/coreldraw/odm/2003">
 <defs>
  <style type="text/css">
   <![CDATA[
    .fil0 {fill:#2B2A29}
   ]]>
  </style>
 </defs>
 <g id="Слой_x0020_1">
  <metadata id="CorelCorpID_0Corel-Layer"/>
  <path class="fil0" d="M409.97 0.9c-2.93,16.39 -3.01,33.55 -0.11,49.85 2.89,16.31 9.94,31.81 21.12,43.34 22.56,23.92 58.93,25.71 91.84,31.25 16.8,2.41 33.79,4.13 51.1,8.17 4.32,0.81 8.68,2.51 13.01,3.77 4.28,1.97 8.73,3.32 12.8,6.19 4.28,2.3 7.96,5.78 11.6,9.27 3.03,3.97 6.46,7.97 8.17,12.62 4.53,9.05 5.6,18.59 6.43,27.75 0.52,8.96 0.39,17.66 -0.02,26.56 -1.01,17.71 -4.37,35.44 -9.77,52.36 -11.01,33.86 -28.55,64.39 -47.27,93.4 -18.9,28.9 -39.75,56.46 -60.44,83.46 -20.32,26.6 -39.16,54.33 -52.89,83.7 -7.23,14.56 -12.02,29.78 -15.58,44.94 -3.15,15.25 -3.58,30.57 -1.8,45.56 2.13,14.98 7.43,29.39 14.08,43.31 4.05,6.73 7.31,13.74 12.14,20.13l6.75 9.77 7.58 9.37c10.01,12.54 21.55,23.74 33.48,34.75 12.36,10.7 25.09,21.03 38.62,31.2 13.27,10.24 27.16,20.63 40.76,31.8 6.73,5.91 13.6,11.43 20.09,17.99 6.68,6.13 12.93,13.06 18.98,20.21 11.65,14.66 22.65,30.86 29.19,49.12 4,8.86 5.88,18.29 8.25,27.56 1.39,4.63 1.57,9.34 2.25,14.03l1.69 14.03c0.03,3.19 0.05,6.38 0.05,9.57l0 0.87c0,5.79 -0.05,11.58 -0.14,17.31l-2.19 26.36c-2.08,17.5 -4.49,34.96 -8.04,51.96 -3.41,17.13 -7.42,33.68 -11.05,50.2 -1.67,8.17 -3.6,16.4 -5.02,24.52l-2.32 12.22 -1.81 12.22c-4.69,32.57 -4.93,65.8 -1.86,99.24 2.94,33.47 9.09,66.82 15.23,100.41l-3.79 1.09c-11.88,-32.09 -22.08,-64.95 -29.25,-98.9l-4.43 -25.69 -3.03 -26.06c-0.49,-8.74 -1.05,-17.53 -1.16,-26.33 0.22,-8.79 -0.08,-17.67 0.68,-26.42 1.72,-35.34 9.09,-69.4 13.49,-102.32 2.39,-16.53 4.12,-32.89 5.29,-49.29l0.96 -24.64 -0.94 -23.32c-2.96,-30.63 -14.08,-58.21 -33.7,-81.6 -19.57,-23.56 -45.83,-43.79 -72.49,-65.59 -13.28,-10.85 -26.58,-22.51 -39.47,-34.65 -12.63,-12.56 -25.02,-25.74 -35.79,-40.19l-8.12 -10.8 -7.39 -11.48c-5.19,-7.45 -9.02,-16.01 -13.38,-24.08 -7.53,-17 -13.45,-35.07 -15.51,-54.01 -1.77,-18.87 -0.52,-37.92 3.76,-55.96 4.66,-17.81 10.83,-35.1 19.19,-50.84 16.11,-31.94 36.75,-60.25 58.5,-87.11 21.51,-26.46 42.54,-52.68 61.77,-80.26 18.96,-27.57 36.4,-56.24 47.38,-87.01 5.52,-15.35 9.15,-31.24 10.69,-47.48 0.68,-8.09 1.09,-16.43 0.92,-24.49 -0.42,-7.7 -1.06,-15.53 -4.07,-21.87 -1.03,-3.5 -3.37,-6.04 -5.24,-8.96 -2.49,-2.41 -4.82,-5.02 -8.06,-6.86 -2.79,-2.27 -6.62,-3.52 -9.96,-5.29 -3.8,-1.21 -7.34,-2.83 -11.38,-3.74 -15.72,-4.3 -32.64,-6.71 -49.43,-9.74 -16.85,-2.98 -33.78,-6.29 -50.43,-10.82 -16.96,-4.75 -33.76,-13.15 -45.68,-26.78 -11.97,-13.49 -18.73,-30.75 -21.03,-48 -2.29,-17.35 -1.45,-34.76 2.34,-51.74l3.84 0.9z"/>
  <path class="fil0" d="M344.4 350.11c-16.32,40.12 -26.38,82.72 -30.24,125.3 -4.19,42.57 -2.11,85.36 6.18,126.5 3.97,20.62 10.91,40.52 18.69,59.79 7.52,19.4 16.32,38.11 24.71,57.18 4.56,9.37 8.74,18.99 13.75,28.25 2.38,4.7 4.62,9.51 7.16,14.17 2.68,4.55 5.2,9.24 7.69,13.98l3.78 7.11 4.09 6.94 8.02 14.14c5.31,9.55 11.27,18.69 16.33,28.87l-2.85 2.72c-9.43,-6.15 -18.55,-12.81 -27.27,-20 -8.23,-7.6 -17.1,-14.84 -24.46,-23.4 -7.93,-8.14 -15.08,-16.94 -21.94,-26.04 -7.16,-8.91 -13.03,-18.7 -19.15,-28.37 -11.39,-19.81 -21.01,-40.87 -26.84,-63.1 -5.94,-22.16 -10.26,-44.64 -12.83,-67.21 -2.71,-22.55 -3.65,-45.22 -2.83,-67.73 0.99,-22.52 3.91,-44.84 8.27,-66.74 4.55,-21.88 10.7,-43.33 18.32,-64.14 7.58,-20.84 16.56,-41.06 27.96,-60.1l3.46 1.88z"/>
  <path class="fil0" d="M229.55 60.93c-24.46,-7.03 -48.91,-13.88 -73.56,-18.61 -12.24,-2.59 -24.5,-4.7 -36.6,-6.04 -11.98,-1.46 -24.11,-2.22 -34.55,-0.91 -5.09,0.69 -9.8,2.14 -12.08,3.96 -0.41,0.2 -1.92,1.37 -2.88,2.04l-3.22 2.34c-1.93,1.76 -4.02,3.33 -5.78,5.14 -7.2,7.06 -13.23,13.84 -18.67,22.06 -5.46,8.14 -10.18,17.86 -14.23,28.92 -4.13,11.06 -7.42,23.21 -11.96,36.25l-3.92 0.36c-6.78,-12.24 -10.49,-25.61 -11.79,-39.8 -0.18,-2.43 -0.3,-4.89 -0.3,-7.38 -0.04,-11.98 2.13,-24.48 7.21,-36.47 5.92,-14.6 17.39,-27.15 30.45,-35.29 3.26,-2.07 6.69,-3.7 10.02,-5.5l5.12 -2.23c1.87,-0.76 3.01,-1.39 5.62,-2.27 9.37,-3.3 17.46,-3.65 25,-3.6 29.6,1.14 53.95,10.19 78.26,19.57 23.96,10.07 47.18,20.94 69.44,33.87l-1.59 3.6z"/>
 </g>
</svg>
